<svg width="133" height="30" viewBox="0 0 133 30" fill="none" xmlns="http://www.w3.org/2000/svg">
<g clip-path="url(#clip0_269_3530)">
<path d="M67.3447 16.4429C67.3447 13.3591 65.2011 11.8173 60.9141 11.8173C56.5064 11.8173 54.1936 13.5679 53.9756 17.0692H57.6813C57.7627 16.1732 58.0418 15.5418 58.5184 15.175C58.9951 14.8082 59.7827 14.6241 60.8814 14.6227C61.8986 14.6227 62.6253 14.7771 63.0612 15.0859C63.4972 15.3947 63.7043 15.8753 63.7043 16.5321C63.7204 16.7592 63.6828 16.987 63.5946 17.197C63.5064 17.407 63.37 17.5934 63.1964 17.7412C62.8563 18.008 62.2983 18.1921 61.5223 18.2936L59.1876 18.5111C55.2392 18.9098 53.2649 20.5111 53.2649 23.3151C53.2649 24.7649 53.7685 25.8986 54.7756 26.7163C55.7827 27.534 57.1342 27.9422 58.8301 27.9407C61.1016 27.9407 62.7561 27.1948 63.7937 25.7029C63.894 26.638 64.0342 27.2644 64.2144 27.5819H67.9812C67.5627 26.986 67.3534 26.011 67.3534 24.6569L67.3447 16.4429ZM63.6956 21.4861C63.6956 22.6996 63.3272 23.6297 62.5904 24.2763C61.8536 24.9229 60.8959 25.2462 59.7173 25.2462C58.8803 25.2462 58.2372 25.0621 57.7882 24.6938C57.5645 24.5069 57.3875 24.2708 57.271 24.0039C57.1545 23.7371 57.1017 23.4469 57.1168 23.1563C57.0992 22.8725 57.1481 22.5885 57.2597 22.3269C57.3714 22.0653 57.5426 21.8333 57.7598 21.6492C58.1871 21.3013 58.8999 21.0678 59.8983 20.9489L61.9321 20.7097C62.7502 20.6097 63.3381 20.4009 63.6956 20.0834V21.4861ZM70.1262 6.32607H73.8952V27.5732H70.1262V6.32607ZM83.8855 11.8173C81.6126 11.8173 79.7684 12.553 78.353 14.0246C76.9375 15.4962 76.2393 17.4462 76.2581 19.8746C76.2581 22.3016 76.9659 24.2509 78.3813 25.7225C79.7968 27.194 81.6489 27.9306 83.9378 27.932C85.7718 27.932 87.3268 27.4695 88.6027 26.5445C89.8706 25.6412 90.7686 24.3113 91.1313 22.7996H87.5041C86.8704 24.2683 85.694 25.0026 83.9748 25.0026C82.8195 25.0026 81.8974 24.6692 81.2086 24.0023C80.5198 23.3353 80.1063 22.3458 79.9683 21.0338H91.5215V20.1378C91.5215 17.6528 90.8334 15.6441 89.4572 14.1116C88.081 12.5791 86.2267 11.8129 83.8942 11.8129M79.9966 18.4132C80.357 15.9645 81.6431 14.7408 83.855 14.7423C84.3375 14.7231 84.8191 14.8004 85.2713 14.9695C85.7235 15.1387 86.1373 15.3964 86.4882 15.7274C87.1655 16.3813 87.584 17.2766 87.7438 18.4132H79.9966ZM106.373 13.2656C107.338 14.2283 107.821 15.5955 107.823 17.3672V27.5732H104.045V17.9935C104.045 16.0449 103.078 15.0707 101.143 15.0707C100.688 15.0632 100.236 15.1509 99.816 15.328C99.3963 15.5052 99.0183 15.7679 98.7064 16.0993C98.0364 16.7865 97.7022 17.7369 97.7036 18.9504V27.5732H93.9346V12.1717H97.5837V14.3791C98.7609 12.6669 100.367 11.8115 102.401 11.8129C104.075 11.8129 105.396 12.2957 106.364 13.2613M115.328 12.1717H118.38V15.0359H115.328V23.3607C115.328 23.858 115.462 24.2067 115.731 24.4068C116 24.6068 116.454 24.7062 117.094 24.7047H118.38V27.5688C117.562 27.6471 116.904 27.6884 116.405 27.6884C114.731 27.6884 113.509 27.3753 112.74 26.7489C111.972 26.1226 111.588 25.123 111.589 23.75V15.0402H109.192V12.1717H111.589V7.7005H115.328V12.1717ZM133.004 24.6438V27.5688H119.906V25.0962L126.009 17.4281L127.071 16.145C127.498 15.6274 127.789 15.2693 127.943 15.0707C127.463 15.091 126.406 15.1004 124.771 15.0989H120.047V12.1717H132.64V14.6488L126.537 22.3169L125.475 23.5999C125.039 24.1175 124.748 24.4756 124.603 24.6743C125.081 24.6554 126.138 24.6453 127.773 24.6438H133.004ZM44.6719 10.8321H48.7417V27.5775H44.6719V10.8321ZM53.9843 9.05536H39.4294C38.4694 9.05536 37.5488 8.67509 36.8699 7.99814C36.1909 7.32118 35.8092 6.40296 35.8086 5.44531H57.6072C57.6067 6.40296 57.2249 7.32118 56.546 7.99814C55.867 8.67509 54.9464 9.05536 53.9865 9.05536" fill="#AAEBCA"/>
<path d="M16.3621 0.500003C16.8588 0.499273 17.3428 0.656024 17.7445 0.947624C18.1461 1.23922 18.4444 1.65059 18.5964 2.12235L21.8183 12.013L17.8662 14.8815L13.1664 0.504356L16.3621 0.500003ZM0 13.1134L0.972217 10.1101C1.12408 9.63725 1.42292 9.2249 1.82543 8.93282C2.22794 8.64074 2.71322 8.4841 3.21094 8.4856H13.659L15.1719 13.1134H0ZM7.95214 29.4978L5.38862 27.6471C4.98509 27.3559 4.68454 26.9444 4.53021 26.472C4.37589 25.9995 4.37573 25.4904 4.52976 25.0179L7.75378 15.125H12.641L7.95214 29.4978ZM23.4837 28.8911C23.0839 29.1817 22.6024 29.3392 22.1078 29.3412C21.6131 29.3431 21.1304 29.1894 20.7283 28.902L12.2465 22.8279L13.7724 18.1284L26.0515 27.0121L23.4837 28.8911ZM29.3867 14.7554L20.9768 20.8555L17.016 17.9913L29.2494 9.1054L30.2391 12.1305C30.395 12.6019 30.3964 13.1106 30.2432 13.5829C30.09 14.0553 29.79 14.4667 29.3867 14.7575" fill="#AAEBCA"/>
</g>
<defs>
<clipPath id="clip0_269_3530">
<rect width="133" height="29" fill="white" transform="translate(0 0.5)"/>
</clipPath>
</defs>
</svg>
