<svg width="31" height="29" viewBox="0 0 31 29" fill="none" xmlns="http://www.w3.org/2000/svg">
<path d="M16.3621 2.53242e-06C16.8588 -0.000726632 17.3428 0.156024 17.7445 0.447624C18.1461 0.739225 18.4444 1.15059 18.5964 1.62235L21.8183 11.513L17.8662 14.3815L13.1664 0.00435624L16.3621 2.53242e-06ZM0 12.6134L0.972217 9.61013C1.12408 9.13725 1.42292 8.7249 1.82543 8.43282C2.22794 8.14074 2.71322 7.9841 3.21094 7.9856H13.659L15.1719 12.6134H0ZM7.95214 28.9978L5.38862 27.1471C4.98509 26.8559 4.68454 26.4444 4.53021 25.972C4.37589 25.4995 4.37573 24.9904 4.52976 24.5179L7.75378 14.625H12.641L7.95214 28.9978ZM23.4837 28.3911C23.0839 28.6817 22.6024 28.8392 22.1078 28.8412C21.6131 28.8431 21.1304 28.6894 20.7283 28.402L12.2465 22.3279L13.7724 17.6284L26.0515 26.5121L23.4837 28.3911ZM29.3867 14.2554L20.9768 20.3555L17.016 17.4913L29.2494 8.6054L30.2391 11.6305C30.395 12.1019 30.3964 12.6106 30.2432 13.0829C30.09 13.5553 29.79 13.9667 29.3867 14.2575" fill="#AAEBCA"/>
</svg>
